#!OML:ASF E:\Style4\Style4.ASF
:FULLY-SPECIFIED
:DEGREES
1267
root -0.27651 16.7571 -1.47495 7.94918 17.2725 2.8728
lowerback 19.8059 4.5848 -0.0361912
upperback 10.2394 6.05493 -0.278272
thorax 0.0554374 3.08644 -1.42916
lowerneck 6.23503 -4.46872 -2.48742
upperneck -8.46674 -5.8431 4.59815
head -3.64881 -3.02598 2.25946
rclavicle -1.03368e-014 -1.19271e-014
rhumerus 28.094 11.5666 -75.5836
rradius 103.365
rwrist 25.9074
rhand 13.365 -1.98443
rfingers 7.12502
rthumb 38.3105 -27.6985
lclavicle -1.03368e-014 -1.19271e-014
lhumerus 27.1728 -17.3679 70.7446
lradius 128.904
lwrist -8.89992
lhand 7.30348 34.4586
lfingers 7.12502
lthumb 32.5645 61.5496
rfemur -34.8932 -10.2661 18.3389
rtibia 57.3387
rfoot -27.7986 -18.6167
rtoes -8.35819
lfemur -38.9441 -7.11312 -19.9752
ltibia 53.2027
lfoot -19.8102 -1.69289
ltoes -13.765
1268
root -0.283117 16.7748 -1.47418 7.97324 17.3909 2.73166
lowerback 19.7625 4.6028 0.019298
upperback 10.2171 6.08766 -0.304506
thorax 0.0625885 3.10562 -1.49098
lowerneck 6.22222 -4.4906 -2.57466
upperneck -8.50267 -5.87254 4.68563
head -3.65293 -3.04166 2.3063
rclavicle 1.19271e-014 -2.22639e-014
rhumerus 27.1535 11.3739 -75.8249
rradius 103.239
rwrist 26.1372
rhand 13.2376 -1.98918
rfingers 7.12502
rthumb 38.1902 -27.7364
lclavicle 1.19271e-014 -2.22639e-014
lhumerus 28.1392 -17.2816 70.6079
lradius 128.735
lwrist -9.03664
lhand 7.07735 34.384
lfingers 7.12502
lthumb 32.3493 61.5193
rfemur -34.7891 -10.2619 18.5286
rtibia 57.0465
rfoot -27.6459 -18.7062
rtoes -8.30181
lfemur -38.8976 -7.20755 -19.7713
ltibia 52.9554
lfoot -19.7888 -1.51307
ltoes -14.7034
1269
root -0.289119 16.7928 -1.47216 7.98747 17.5632 2.6495
lowerback 19.8061 4.58155 -0.0345698
upperback 10.1632 6.05072 -0.299786
thorax -0.0247812 3.08397 -1.45625
lowerneck 6.17602 -4.47185 -2.78247
upperneck -8.46305 -5.86295 4.74414
head -3.62318 -3.03239 2.35919
rclavicle 8.74653e-015 3.10104e-014
rhumerus 26.1152 11.3255 -76.0664
rradius 103.267
rwrist 26.2589
rhand 13.3293 -1.89544
rfingers 7.12502
rthumb 38.2767 -27.6188
lclavicle 8.74653e-015 3.10104e-014
lhumerus 28.9304 -17.0961 70.5182
lradius 128.452
lwrist -9.17037
lhand 6.74089 34.2347
lfingers 7.12502
lthumb 32.029 61.4348
rfemur -34.6205 -10.3652 18.6601
rtibia 56.7456
rfoot -27.5756 -18.6924
rtoes -8.17012
lfemur -38.8166 -7.33326 -19.6336
ltibia 52.7119
lfoot -19.6645 -1.57223
ltoes -14.5323
1270
root -0.293517 16.8114 -1.47089 8.03014 17.6659 2.59471
lowerback 19.8503 4.56216 -0.134577
upperback 10.087 6.00694 -0.312298
thorax -0.139365 3.05709 -1.41404
lowerneck 6.15162 -4.41201 -3.00527
upperneck -8.44354 -5.80177 4.77407
head -3.60762 -2.99587 2.40473
rclavicle -8.18993e-014 5.80451e-014
rhumerus 25.0842 11.3888 -76.3132
rradius 103.36
rwrist 26.2988
rhand 13.4162 -1.83736
rfingers 7.12502
rthumb 38.3588 -27.538
lclavicle -8.18993e-014 5.80451e-014
lhumerus 29.6268 -16.8478 70.4268
lradius 128.154
lwrist -9.26721
lhand 6.53518 34.2213
lfingers 7.12502
lthumb 31.8331 61.4605
rfemur -34.5228 -10.3679 18.7311
rtibia 56.4396
rfoot -27.6661 -18.6551
rtoes -7.55085
lfemur -38.7572 -7.40787 -19.537
ltibia 52.4868
lfoot -19.4383 -1.78625
ltoes -13.4809
1271
root -0.296789 16.8243 -1.4717 8.10515 17.7373 2.47812
lowerback 19.8202 4.57124 -0.16919
upperback 10.0276 6.0118 -0.32579
thorax -0.190595 3.05744 -1.41089
lowerneck 6.08488 -4.35151 -3.09511
upperneck -8.4412 -5.73083 4.73981
head -3.59557 -2.95561 2.40352
rclavicle 4.17448e-014 -3.89618e-014
rhumerus 23.9761 11.3599 -76.5595
rradius 103.558
rwrist 26.3357
rhand 13.3359 -1.79444
rfingers 7.12502
rthumb 38.283 -27.5161
lclavicle 4.17448e-014 -3.89618e-014
lhumerus 30.4232 -16.6457 70.2929
lradius 127.721
lwrist -9.34557
lhand 6.41029 34.2619
lfingers 7.12502
lthumb 31.7142 61.5248
rfemur -34.5383 -10.3625 18.8873
rtibia 56.147
rfoot -27.5403 -18.8844
rtoes -7.60949
lfemur -38.8105 -7.42682 -19.3809
ltibia 52.3109
lfoot -19.2565 -1.9128
ltoes -13.071
1272
root -0.301641 16.8332 -1.47124 8.16422 17.8284 2.40121
lowerback 19.8152 4.58662 -0.227101
upperback 9.98172 6.02048 -0.368213
thorax -0.238459 3.06009 -1.42727
lowerneck 6.05099 -4.3296 -3.16204
upperneck -8.49317 -5.7082 4.71685
head -3.60704 -2.94084 2.40724
rclavicle -1.90833e-014 2.06736e-014
rhumerus 22.7741 11.3355 -76.76
rradius 103.857
rwrist 26.3148
rhand 13.422 -1.61091
rfingers 7.12502
rthumb 38.3643 -27.3101
lclavicle -1.90833e-014 2.06736e-014
lhumerus 31.2328 -16.5185 70.1359
lradius 127.072
lwrist -9.42872
lhand 6.06654 34.2109
lfingers 7.12502
lthumb 31.3867 61.538
rfemur -34.4727 -10.4362 19.0354
rtibia 55.9079
rfoot -27.3044 -18.9823
rtoes -7.94543
lfemur -38.8463 -7.46619 -19.2599
ltibia 52.17
lfoot -19.1424 -1.99911
ltoes -12.8365
1273
root -0.305402 16.8425 -1.47057 8.22716 17.9582 2.35345
lowerback 19.8102 4.56284 -0.248323
upperback 9.93725 5.98444 -0.438963
thorax -0.278989 3.04287 -1.48491
lowerneck 5.98826 -4.3126 -3.28753
upperneck -8.47874 -5.69575 4.7251
head -3.58688 -2.93046 2.42888
rclavicle 8.34896e-015 -1.03368e-014
rhumerus 21.6984 11.4923 -76.8409
rradius 104.262
rwrist 26.2463
rhand 13.7088 -1.60232
rfingers 7.12502
rthumb 38.6349 -27.2259
lclavicle 8.34896e-015 -1.03368e-014
lhumerus 31.9089 -16.3888 69.9796
lradius 126.295
lwrist -9.59615
lhand 5.653 34.0846
lfingers 7.12502
lthumb 30.9926 61.4874
rfemur -34.4386 -10.5259 19.1304
rtibia 55.6914
rfoot -27.2083 -19.0597
rtoes -8.29059
lfemur -38.8805 -7.5802 -19.1586
ltibia 52.0568
lfoot -19.182 -1.96697
ltoes -13.0818
